<svg width="482" height="342" viewBox="0 0 482 342" fill="none" xmlns="http://www.w3.org/2000/svg">
<g clip-path="url(#clip0_313_186)">
<path d="M25.2424 115.516C25.2424 115.516 13.9467 119.603 12.4679 121.242C10.989 122.88 9.68451 124.182 10.0151 127.777C10.3458 131.372 13.7784 171.588 13.7784 171.588C13.7784 171.588 13.5078 176.989 18.2269 179.438C22.9459 181.887 224.236 265.259 224.236 265.259C230.48 266.656 236.858 267.368 243.257 267.384C253.711 267.384 259.608 267.216 268.126 263.783C276.645 260.35 460.399 181.214 462.203 179.906C464.006 178.598 466.952 177.127 467.77 173.04C468.587 168.953 471.863 128.732 471.539 126.115C471.214 123.498 471.371 121.044 466.621 119.249C461.872 117.455 454.502 115.486 454.502 115.486" stroke="#418AF2" stroke-width="0.45" stroke-miterlimit="10"/>
<path d="M481.199 55.0215C481.199 55.0215 477.592 95.8315 477.376 97.5839C477.16 99.3364 477.376 103.471 472.465 106.526C467.553 109.581 449.861 116.555 449.861 116.555L254.528 186.97C254.528 186.97 245.655 189.695 240.756 189.803C236.721 189.908 232.699 189.317 228.865 188.056C225.92 187.078 170.998 167.891 170.018 166.583C169.038 165.275 168.053 164.842 168.161 160.047C168.269 155.252 167.397 108.159 167.397 108.159C167.21 107.194 167.371 106.195 167.851 105.337C168.33 104.48 169.098 103.819 170.018 103.471C173.403 101.947 401.378 37.5272 401.378 37.5272C401.378 37.5272 408.478 35.7808 412.518 36.1109C416.557 36.4409 437.88 40.4979 437.88 40.4979L477.947 49.3261C477.947 49.3261 481.223 49.4941 481.223 52.2728L481.199 55.0215Z" stroke="#418AF2" stroke-width="0.45" stroke-miterlimit="10"/>
<path d="M471.058 123.198C471.058 123.198 472.862 125.653 469.08 127.945C465.299 130.238 266.323 209.205 266.323 209.205C266.323 209.205 253.194 212.146 240.762 212.146C228.33 212.146 15.0891 130.394 15.0891 130.394C15.0891 130.394 6.90137 127.453 12.4681 121.242" stroke="#418AF2" stroke-width="0.45" stroke-miterlimit="10"/>
<path d="M236.915 128V189.683" stroke="#418AF2" stroke-width="0.45" stroke-miterlimit="10"/>
<path d="M479.847 49.8784C479.847 49.8784 483.273 53.0052 473.451 55.6218C463.628 58.2385 249.184 126.037 249.184 126.037C249.184 126.037 234.552 129.74 228.871 128C223.19 126.259 174.936 111.195 172.537 109.467C170.139 107.739 165.54 104.858 170.024 103.466" stroke="#418AF2" stroke-width="0.45" stroke-miterlimit="10"/>
<path d="M80.1938 80.2036L83.0313 131.924C83.0313 131.924 83.2537 135.627 86.0912 136.936C88.9286 138.244 136.504 155.126 136.504 155.126C136.504 155.126 142.179 156.8 145.678 156.146C149.176 155.492 158.777 153.314 158.777 153.314L168.101 150.475" stroke="#418AF2" stroke-width="0.45" stroke-miterlimit="10"/>
<path d="M141.091 99.8765L142.588 156.224" stroke="#418AF2" stroke-width="0.45" stroke-miterlimit="10"/>
<path d="M385.009 29.4613C385.009 29.4613 386.427 31.2017 383.367 32.402C380.308 33.6023 148.184 97.476 148.184 97.476C148.184 97.476 145.563 98.6763 141.091 98.6763C136.618 98.6763 82.7787 82.2203 82.7787 82.2203C82.7787 82.2203 78.1919 80.4738 80.9211 78.2953C83.6504 76.1167 172.639 53.2211 183.117 50.6885C193.595 48.1559 305.951 20.4951 305.951 20.4951C305.951 20.4951 317.199 18.5326 319.603 18.0945C322.58 17.4713 325.627 17.2513 328.662 17.4403L383.055 29.0172L385.003 29.4313C385.003 29.4313 386.313 29.8694 386.313 33.5723V41.7583" stroke="#418AF2" stroke-width="0.45" stroke-miterlimit="10"/>
<path d="M297.811 22.5295V12.7831C297.811 12.7831 298.539 10.7126 289.041 9.18224C279.542 7.65186 249.184 0.888197 249.184 0.888197C246.396 0.307999 243.535 0.162255 240.702 0.456109C236.494 0.996241 176.98 13.6594 176.98 13.6594L46.0664 41.8663L8.1937 50.0463C8.1937 50.0463 2.84343 51.2466 1.4247 52.987C0.00598154 54.7274 0.114214 60.7289 0.661264 65.8481C1.20831 70.9674 3.93756 103.561 3.93756 103.561C3.93756 103.561 3.49871 106.508 7.43026 108.249C11.3618 109.989 54.6148 123.918 54.6148 123.918C54.6148 123.918 57.4522 125.005 62.6943 123.918C67.9364 122.832 82.2198 119.117 82.2198 119.117" stroke="#418AF2" stroke-width="0.45" stroke-miterlimit="10"/>
<path d="M39.1953 188.362L18.9124 195.468C18.9124 195.468 17.9265 195.906 18.1489 198.415C18.3713 200.923 21.311 235.804 21.311 235.804C21.311 235.804 21.4252 237.982 24.0462 238.961C26.6672 239.939 41.624 246.703 41.624 246.703C42.4471 246.907 43.3077 246.907 44.1308 246.703C45.6637 246.373 54.2301 243.204 54.2301 243.204" stroke="#418AF2" stroke-width="0.45" stroke-miterlimit="10"/>
<path d="M73.3048 202.646L53.0158 209.739C53.0158 209.739 52.036 210.178 52.2524 212.686C52.4688 215.195 54.7772 251.87 54.7772 251.87C54.7772 251.87 54.8855 254.048 57.5065 255.027C60.1275 256.005 76.5089 263.585 76.5089 263.585C77.332 263.789 78.1926 263.789 79.0157 263.585C80.5487 263.261 89.8846 259.936 89.8846 259.936" stroke="#418AF2" stroke-width="0.45" stroke-miterlimit="10"/>
<path d="M190.806 251.42L170.138 260.104C169.5 260.408 168.97 260.901 168.623 261.517C168.275 262.132 168.126 262.84 168.197 263.543C168.413 266.051 169.345 305.943 169.345 305.943C169.345 305.943 169.453 308.122 172.074 309.106C174.695 310.09 195.766 320.005 195.766 320.005C196.836 320.277 197.951 320.326 199.042 320.149C200.569 319.824 212.526 314.147 212.526 314.147" stroke="#418AF2" stroke-width="0.45" stroke-miterlimit="10"/>
<path d="M149.477 234.28L128.863 242.682C128.863 242.682 127.006 243.474 127.222 245.982C127.439 248.491 129.08 285.82 129.08 285.82C129.08 285.82 128.695 288.599 131.316 289.583C133.937 290.567 153.973 300.23 153.973 300.23C154.799 300.434 155.661 300.434 156.486 300.23C158.013 299.9 168.93 294.75 168.93 294.75" stroke="#418AF2" stroke-width="0.45" stroke-miterlimit="10"/>
<path d="M111.135 218.514L88.8625 226.316C88.8625 226.316 87.8827 226.754 88.0991 229.262C88.3155 231.771 90.6299 268.446 90.6299 268.446C90.6299 268.446 90.7381 270.624 93.3592 271.603C95.9802 272.581 113.798 281.205 113.798 281.205C114.623 281.413 115.487 281.413 116.311 281.205C117.838 280.881 128.653 276.62 128.653 276.62" stroke="#418AF2" stroke-width="0.45" stroke-miterlimit="10"/>
<path d="M63.1695 198.385L42.4958 205.587C41.3559 205.922 40.1431 205.922 39.0031 205.587C36.9292 205.04 18.4497 195.984 18.4497 195.984" stroke="#418AF2" stroke-width="0.45" stroke-miterlimit="10"/>
<path d="M98.7034 213.184L77.2663 220.668C76.1268 221.007 74.913 221.007 73.7736 220.668C71.6996 220.122 52.4146 210.61 52.4146 210.61" stroke="#418AF2" stroke-width="0.45" stroke-miterlimit="10"/>
<path d="M135.722 228.572L112.921 236.836C111.781 237.175 110.567 237.175 109.428 236.836C107.354 236.29 88.0688 226.778 88.0688 226.778" stroke="#418AF2" stroke-width="0.45" stroke-miterlimit="10"/>
<path d="M175.645 245.148L152.633 254.523C151.493 254.858 150.28 254.858 149.14 254.523C147.066 253.976 127.781 244.464 127.781 244.464" stroke="#418AF2" stroke-width="0.45" stroke-miterlimit="10"/>
<path d="M222.066 264.389L198.314 273.955C197.174 274.291 195.962 274.291 194.822 273.955C192.748 273.409 168.569 262.144 168.569 262.144" stroke="#418AF2" stroke-width="0.45" stroke-miterlimit="10"/>
<path d="M443.291 188.344L464.878 195.936C464.878 195.936 465.864 196.374 465.642 198.877C465.419 201.379 462.48 236.266 462.48 236.266C462.48 236.266 462.372 238.445 459.751 239.429C457.129 240.413 442.167 247.165 442.167 247.165C441.344 247.372 440.483 247.372 439.66 247.165C438.127 246.841 429.561 243.672 429.561 243.672" stroke="#418AF2" stroke-width="0.45" stroke-miterlimit="10"/>
<path d="M409.843 202.862L430.775 210.196C430.775 210.196 431.755 210.628 431.538 213.136C431.322 215.645 429.014 252.32 429.014 252.32C429.014 252.32 428.905 254.499 426.284 255.483C423.663 256.467 407.288 264.035 407.288 264.035C406.463 264.242 405.6 264.242 404.775 264.035C403.248 263.711 393.912 260.386 393.912 260.386" stroke="#418AF2" stroke-width="0.45" stroke-miterlimit="10"/>
<path d="M295.076 252.728L313.712 260.53C314.35 260.834 314.879 261.326 315.226 261.941C315.573 262.555 315.723 263.261 315.654 263.963C315.438 266.472 314.506 306.369 314.506 306.369C314.506 306.369 314.398 308.548 311.777 309.526C309.156 310.504 288.085 320.431 288.085 320.431C287.014 320.7 285.899 320.749 284.809 320.575C283.282 320.245 272.744 315.264 272.744 315.264" stroke="#418AF2" stroke-width="0.45" stroke-miterlimit="10"/>
<path d="M334.079 235.546L354.927 243.114C354.927 243.114 356.785 243.906 356.568 246.415C356.352 248.923 354.711 286.258 354.711 286.258C354.711 286.258 355.096 289.037 352.475 290.015C349.854 290.994 329.817 300.662 329.817 300.662C328.992 300.87 328.129 300.87 327.304 300.662C325.777 300.338 314.86 295.183 314.86 295.183" stroke="#418AF2" stroke-width="0.45" stroke-miterlimit="10"/>
<path d="M372.661 218.952L394.904 226.754C394.904 226.754 395.884 227.186 395.667 229.695C395.451 232.203 393.143 268.878 393.143 268.878C393.143 268.878 393.028 271.057 390.413 272.041C387.798 273.025 369.974 281.643 369.974 281.643C369.149 281.848 368.286 281.848 367.461 281.643C365.934 281.313 355.12 277.052 355.12 277.052" stroke="#418AF2" stroke-width="0.45" stroke-miterlimit="10"/>
<path d="M419.804 198.541L441.295 206.049C442.434 206.388 443.648 206.388 444.788 206.049C446.862 205.503 465.341 196.446 465.341 196.446" stroke="#418AF2" stroke-width="0.45" stroke-miterlimit="10"/>
<path d="M385.093 213.623L406.524 221.112C407.664 221.448 408.877 221.448 410.017 221.112C412.091 220.566 431.376 211.054 431.376 211.054" stroke="#418AF2" stroke-width="0.45" stroke-miterlimit="10"/>
<path d="M348.729 229.25L370.87 237.28C372.01 237.616 373.222 237.616 374.362 237.28C376.436 236.734 395.721 227.222 395.721 227.222" stroke="#418AF2" stroke-width="0.45" stroke-miterlimit="10"/>
<path d="M309.498 246.133L331.14 254.955C332.279 255.294 333.493 255.294 334.632 254.955C336.706 254.409 355.991 244.896 355.991 244.896" stroke="#418AF2" stroke-width="0.45" stroke-miterlimit="10"/>
<path d="M262.909 265.301L285.476 274.382C286.615 274.721 287.829 274.721 288.969 274.382C291.043 273.835 315.221 262.577 315.221 262.577" stroke="#418AF2" stroke-width="0.45" stroke-miterlimit="10"/>
<path d="M245.036 267.414C245.036 267.414 270.886 278.528 271.126 278.858C271.367 279.189 273.2 279.321 273.2 281.787C273.2 284.254 272.545 326.108 272.545 326.108C272.71 326.68 272.656 327.293 272.394 327.827C272.131 328.362 271.68 328.78 271.126 329.001C271.126 329.001 245.505 341.262 243.978 341.604C242.888 341.781 241.772 341.732 240.702 341.46C240.702 341.46 218.273 330.903 215.652 329.925C213.031 328.947 212.923 326.762 212.923 326.762C212.923 326.762 212.73 285.088 212.514 282.579C212.445 281.877 212.595 281.17 212.942 280.555C213.29 279.94 213.818 279.446 214.455 279.14L241.008 267.432" stroke="#418AF2" stroke-width="0.45" stroke-miterlimit="10"/>
<path d="M212.514 282.561C212.514 282.561 238.916 294.768 242.848 294.768C246.779 294.768 273.2 281.787 273.2 281.787" stroke="#418AF2" stroke-width="0.45" stroke-miterlimit="10"/>
<path d="M1.44269 53.0052C1.44269 53.0052 0.300507 54.7756 4.19598 56.4921L51.615 70.2294C51.615 70.2294 57.5063 70.8776 61.8346 70.4455C65.8924 70.0374 295.864 12.6273 295.864 12.6273C295.864 12.6273 297.835 11.529 295.491 10.7788" stroke="#418AF2" stroke-width="0.45" stroke-miterlimit="10"/>
<path d="M55.7031 70.5952L59.4183 124.182" stroke="#418AF2" stroke-width="0.45" stroke-miterlimit="10"/>
</g>
<defs>
<clipPath id="clip0_313_186">
<rect width="481.5" height="342" fill="white"/>
</clipPath>
</defs>
</svg>
