<svg width="157" height="90" viewBox="0 0 157 90" fill="none" xmlns="http://www.w3.org/2000/svg">
<path d="M46.5982 35.7219V15.7715H54.5716C56.6827 15.7715 58.3132 16.2243 59.4631 17.1298C60.6129 18.0354 61.1878 19.3182 61.1878 20.9784C61.1878 22.2235 60.8108 23.2612 60.0568 24.0912C59.3217 24.9213 58.2943 25.4684 56.9749 25.7326V25.3364C58.4451 25.5062 59.595 26.0155 60.4244 26.8645C61.2726 27.6946 61.6967 28.8171 61.6967 30.232C61.6967 32.0054 61.103 33.3637 59.9155 34.307C58.7468 35.2503 57.088 35.7219 54.9391 35.7219H46.5982ZM48.8884 33.8259H54.7129C56.1455 33.8259 57.2765 33.5524 58.1059 33.0053C58.9541 32.4393 59.3782 31.5054 59.3782 30.2037C59.3782 28.8831 58.9541 27.9493 58.1059 27.4022C57.2765 26.8362 56.1455 26.5532 54.7129 26.5532H48.8884V33.8259ZM48.8884 24.6855H54.2323C55.7779 24.6855 56.9372 24.3837 57.71 23.78C58.4828 23.1763 58.8693 22.3084 58.8693 21.1765C58.8693 20.0068 58.4828 19.1296 57.71 18.5447C56.9372 17.941 55.7779 17.6392 54.2323 17.6392H48.8884V24.6855Z" fill="#EAF0FF"/>
<path d="M64.996 42.1457L64.4588 40.2497C65.3447 40.0422 66.0798 39.7969 66.6642 39.5139C67.2674 39.2498 67.7669 38.8913 68.1627 38.4386C68.5586 37.9858 68.8978 37.4198 69.1806 36.7407L69.9157 35.0711L69.8592 36.0332L63.6671 21.5161H66.1552L71.2729 33.9957H70.5378L75.5989 21.5161H78.0022L71.4425 36.9105C71.0655 37.816 70.6509 38.5706 70.1985 39.1743C69.7461 39.7969 69.256 40.2968 68.7282 40.6742C68.2193 41.0703 67.6538 41.3816 67.0317 41.608C66.4097 41.8344 65.7311 42.0136 64.996 42.1457Z" fill="#EAF0FF"/>
<path d="M80.5822 35.7219V24.7987C80.5822 24.2705 80.5539 23.7328 80.4974 23.1857C80.4597 22.6197 80.4126 22.0632 80.356 21.5161H82.5614L82.8441 24.6289H82.5048C82.9195 23.5347 83.5793 22.7046 84.484 22.1386C85.4077 21.5538 86.4727 21.2614 87.679 21.2614C89.3567 21.2614 90.6196 21.7142 91.4678 22.6197C92.3349 23.5064 92.7682 24.9119 92.7682 26.8362V35.7219H90.4782V26.9777C90.4782 25.6382 90.2049 24.6666 89.6582 24.0629C89.1305 23.4404 88.3011 23.1291 87.1701 23.1291C85.8506 23.1291 84.8045 23.5347 84.0317 24.3459C83.2588 25.1571 82.8724 26.2419 82.8724 27.6003V35.7219H80.5822Z" fill="#EAF0FF"/>
<path d="M103.454 35.9766C101.23 35.9766 99.4769 35.3352 98.1951 34.0523C96.9134 32.7506 96.2725 30.9489 96.2725 28.6473C96.2725 27.1569 96.5552 25.8646 97.1207 24.7704C97.6862 23.6573 98.4779 22.7989 99.4958 22.1952C100.514 21.5727 101.682 21.2614 103.002 21.2614C104.302 21.2614 105.396 21.5349 106.282 22.082C107.168 22.6292 107.846 23.4121 108.317 24.4308C108.789 25.4307 109.024 26.6192 109.024 27.9964V28.8454H98.0255V27.4022H107.526L107.045 27.77C107.045 26.2608 106.706 25.0817 106.027 24.2327C105.349 23.3838 104.34 22.9593 103.002 22.9593C101.588 22.9593 100.485 23.4592 99.6937 24.4591C98.902 25.4401 98.5061 26.7702 98.5061 28.4492V28.7039C98.5061 30.4773 98.9397 31.8262 99.8068 32.7506C100.693 33.6561 101.927 34.1089 103.511 34.1089C104.359 34.1089 105.151 33.9863 105.886 33.741C106.64 33.4769 107.356 33.0524 108.035 32.4676L108.826 34.0806C108.204 34.6843 107.413 35.1559 106.451 35.4955C105.509 35.8162 104.51 35.9766 103.454 35.9766Z" fill="#EAF0FF"/>
<path d="M117.561 35.9766C116.167 35.9766 115.102 35.5804 114.366 34.7881C113.631 33.9768 113.264 32.76 113.264 31.1376V23.2989H110.493V21.5161H113.264V17.6392L115.554 16.9883V21.5161H119.625V23.2989H115.554V30.8829C115.554 32.0148 115.743 32.826 116.119 33.3165C116.515 33.7882 117.1 34.024 117.872 34.024C118.231 34.024 118.551 33.9957 118.834 33.9391C119.117 33.8636 119.371 33.7788 119.597 33.6844V35.6087C119.333 35.7219 119.013 35.8068 118.636 35.8634C118.278 35.9389 117.92 35.9766 117.561 35.9766Z" fill="#EAF0FF"/>
<path d="M46.5981 62.9451V42.9946H55.9004C58.1435 42.9946 59.8399 43.5417 60.9898 44.6359C62.1584 45.7113 62.7428 47.1922 62.7428 49.0788C62.7428 50.9465 62.1584 52.4369 60.9898 53.55C59.8399 54.6442 58.1435 55.1913 55.9004 55.1913H51.0089V62.9451H46.5981ZM51.0089 51.7672H55.3349C56.3905 51.7672 57.1727 51.5313 57.6817 51.0597C58.2095 50.5881 58.4733 49.9278 58.4733 49.0788C58.4733 48.2299 58.2095 47.579 57.6817 47.1262C57.1727 46.6546 56.3905 46.4187 55.3349 46.4187H51.0089V51.7672Z" fill="#EAF0FF"/>
<path d="M65.0906 62.9451V52.3897C65.0906 51.7672 65.0718 51.1352 65.0341 50.4937C65.0152 49.8523 64.9681 49.2203 64.8927 48.5977H68.9925L69.4732 52.7859H68.8228C69.0113 51.7672 69.3129 50.9276 69.7276 50.2673C70.1612 49.607 70.6889 49.1165 71.311 48.7958C71.9519 48.4751 72.6776 48.3147 73.4881 48.3147C73.8462 48.3147 74.129 48.3336 74.3363 48.3713C74.5437 48.3902 74.751 48.4374 74.9584 48.5128L74.9301 52.2765C74.5343 52.1067 74.195 52.003 73.9122 51.9652C73.6483 51.9087 73.309 51.8804 72.8943 51.8804C72.1027 51.8804 71.4429 52.0313 70.9151 52.3331C70.4062 52.635 70.0198 53.0783 69.7559 53.6632C69.5109 54.248 69.3883 54.9555 69.3883 55.7855V62.9451H65.0906Z" fill="#EAF0FF"/>
<path d="M83.2807 63.2563C81.7539 63.2563 80.425 62.9545 79.2941 62.3508C78.1819 61.7282 77.3149 60.8604 76.6928 59.7473C76.0896 58.6343 75.788 57.3042 75.788 55.7572C75.788 54.2291 76.0896 52.9085 76.6928 51.7955C77.3149 50.6824 78.1819 49.824 79.2941 49.2203C80.425 48.6166 81.7539 48.3147 83.2807 48.3147C84.8075 48.3147 86.1364 48.6166 87.2674 49.2203C88.3984 49.824 89.2655 50.6824 89.8686 51.7955C90.4907 52.9085 90.8017 54.2291 90.8017 55.7572C90.8017 57.3042 90.4907 58.6343 89.8686 59.7473C89.2655 60.8604 88.3984 61.7282 87.2674 62.3508C86.1364 62.9545 84.8075 63.2563 83.2807 63.2563ZM83.2807 60.0303C84.2609 60.0303 85.0337 59.6813 85.5992 58.9833C86.1836 58.2852 86.4757 57.2099 86.4757 55.7572C86.4757 54.3046 86.1836 53.2387 85.5992 52.5595C85.0337 51.8804 84.2609 51.5408 83.2807 51.5408C82.3006 51.5408 81.5183 51.8804 80.934 52.5595C80.3685 53.2387 80.0857 54.3046 80.0857 55.7572C80.0857 57.2099 80.3685 58.2852 80.934 58.9833C81.5183 59.6813 82.3006 60.0303 83.2807 60.0303Z" fill="#EAF0FF"/>
<path d="M100.122 63.2563C98.2557 63.2563 96.8514 62.7941 95.909 61.8697C94.9665 60.9264 94.4952 59.5209 94.4952 57.6532V51.7955H91.7809V48.5977H94.4952V45.0887L98.7647 44.0417V48.5977H102.44V51.7955H98.7647V57.4269C98.7647 58.3324 98.9532 58.955 99.3301 59.2946C99.7071 59.6341 100.188 59.8039 100.772 59.8039C101.13 59.8039 101.422 59.7851 101.649 59.7473C101.894 59.6907 102.148 59.6153 102.412 59.5209V62.8319C102.054 62.9828 101.677 63.0866 101.281 63.1432C100.885 63.2186 100.499 63.2563 100.122 63.2563Z" fill="#EAF0FF"/>
<path d="M111.279 63.2563C109.752 63.2563 108.423 62.9545 107.292 62.3508C106.18 61.7282 105.313 60.8604 104.691 59.7473C104.088 58.6343 103.786 57.3042 103.786 55.7572C103.786 54.2291 104.088 52.9085 104.691 51.7955C105.313 50.6824 106.18 49.824 107.292 49.2203C108.423 48.6166 109.752 48.3147 111.279 48.3147C112.806 48.3147 114.135 48.6166 115.266 49.2203C116.397 49.824 117.264 50.6824 117.867 51.7955C118.489 52.9085 118.8 54.2291 118.8 55.7572C118.8 57.3042 118.489 58.6343 117.867 59.7473C117.264 60.8604 116.397 61.7282 115.266 62.3508C114.135 62.9545 112.806 63.2563 111.279 63.2563ZM111.279 60.0303C112.259 60.0303 113.032 59.6813 113.597 58.9833C114.182 58.2852 114.474 57.2099 114.474 55.7572C114.474 54.3046 114.182 53.2387 113.597 52.5595C113.032 51.8804 112.259 51.5408 111.279 51.5408C110.299 51.5408 109.516 51.8804 108.932 52.5595C108.367 53.2387 108.084 54.3046 108.084 55.7572C108.084 57.2099 108.367 58.2852 108.932 58.9833C109.516 59.6813 110.299 60.0303 111.279 60.0303Z" fill="#EAF0FF"/>
<path d="M128.456 63.2563C126.929 63.2563 125.591 62.9545 124.441 62.3508C123.291 61.7471 122.405 60.8793 121.783 59.7473C121.161 58.6154 120.85 57.2759 120.85 55.729C120.85 54.1631 121.161 52.8331 121.783 51.7389C122.424 50.6258 123.31 49.7768 124.441 49.192C125.591 48.6072 126.929 48.3147 128.456 48.3147C129.417 48.3147 130.35 48.4562 131.255 48.7392C132.179 49.0222 132.933 49.4184 133.517 49.9278L132.273 52.8708C131.802 52.4369 131.255 52.1162 130.633 51.9087C130.03 51.6823 129.446 51.5691 128.88 51.5691C127.73 51.5691 126.835 51.9275 126.194 52.6444C125.553 53.3613 125.233 54.3989 125.233 55.7572C125.233 57.1156 125.553 58.1532 126.194 58.8701C126.835 59.587 127.73 59.9454 128.88 59.9454C129.427 59.9454 130.002 59.8417 130.605 59.6341C131.227 59.4266 131.783 59.1153 132.273 58.7003L133.517 61.615C132.914 62.1244 132.15 62.53 131.227 62.8319C130.322 63.1149 129.398 63.2563 128.456 63.2563Z" fill="#EAF0FF"/>
<path d="M142.452 63.2563C140.926 63.2563 139.597 62.9545 138.466 62.3508C137.354 61.7282 136.487 60.8604 135.865 59.7473C135.261 58.6343 134.96 57.3042 134.96 55.7572C134.96 54.2291 135.261 52.9085 135.865 51.7955C136.487 50.6824 137.354 49.824 138.466 49.2203C139.597 48.6166 140.926 48.3147 142.452 48.3147C143.979 48.3147 145.308 48.6166 146.439 49.2203C147.57 49.824 148.437 50.6824 149.04 51.7955C149.662 52.9085 149.973 54.2291 149.973 55.7572C149.973 57.3042 149.662 58.6343 149.04 59.7473C148.437 60.8604 147.57 61.7282 146.439 62.3508C145.308 62.9545 143.979 63.2563 142.452 63.2563ZM142.452 60.0303C143.433 60.0303 144.205 59.6813 144.771 58.9833C145.355 58.2852 145.647 57.2099 145.647 55.7572C145.647 54.3046 145.355 53.2387 144.771 52.5595C144.205 51.8804 143.433 51.5408 142.452 51.5408C141.472 51.5408 140.69 51.8804 140.106 52.5595C139.54 53.2387 139.257 54.3046 139.257 55.7572C139.257 57.2099 139.54 58.2852 140.106 58.9833C140.69 59.6813 141.472 60.0303 142.452 60.0303Z" fill="#EAF0FF"/>
<path d="M152.731 62.9451V42.1174H157V62.9451H152.731Z" fill="#EAF0FF"/>
<path d="M15.4132 0L0 15.3022L0.093983 63.2808L13.1576 76.4088V87.0812H13.2516L15.4132 89.2534L17.5748 87.0812H17.6688V76.5033L30.8265 63.2808V15.3022L15.4132 0Z" fill="url(#paint0_linear_4_248)"/>
<defs>
<linearGradient id="paint0_linear_4_248" x1="13.7384" y1="72.7066" x2="16.9597" y2="9.05707" gradientUnits="userSpaceOnUse">
<stop stop-color="#089CFC"/>
<stop offset="0.99" stop-color="#2B2DFD"/>
</linearGradient>
</defs>
</svg>
